<?xml version="1.0" encoding="UTF-8"?>
<svg width="48px" height="48px" viewBox="0 0 48 48" version="1.1" xmlns="http://www.w3.org/2000/svg" xmlns:xlink="http://www.w3.org/1999/xlink">
    <!-- Generator: Sketch 47 (45396) - http://www.bohemiancoding.com/sketch -->
    <title>bps-for-jira-48</title>
    <desc>Created with Sketch.</desc>
    <defs>
        <linearGradient x1="138.825332%" y1="50%" x2="25.7102562%" y2="0%" id="linearGradient-1">
            <stop stop-color="#E94E1B" offset="0%"></stop>
            <stop stop-color="#F39200" offset="100%"></stop>
        </linearGradient>
        <linearGradient x1="-19.0978223%" y1="123.555367%" x2="54.5156521%" y2="33.6830636%" id="linearGradient-2">
            <stop stop-color="#E94E1B" offset="0%"></stop>
            <stop stop-color="#F39200" offset="100%"></stop>
        </linearGradient>
        <linearGradient x1="-31.5730085%" y1="57.3428382%" x2="74.154328%" y2="100%" id="linearGradient-3">
            <stop stop-color="#E94E1B" offset="0%"></stop>
            <stop stop-color="#F39200" offset="100%"></stop>
        </linearGradient>
        <linearGradient x1="117.811462%" y1="-19.3188776%" x2="43.8274839%" y2="67.4313815%" id="linearGradient-4">
            <stop stop-color="#E94E1B" offset="0%"></stop>
            <stop stop-color="#F39200" offset="100%"></stop>
        </linearGradient>
    </defs>
    <g id="Page-1" stroke="none" stroke-width="1" fill="none" fill-rule="evenodd">
        <g id="bps-for-jira-48">
            <g id="Page-1" transform="translate(1.000000, 0.000000)">
                <path d="M23.8077511,8.20918211 L23.8077511,21.8135269 L32.0604848,21.8135269 L39.7082878,8.21873234 C37.379059,9.28714452 34.5811225,9.25308101 32.1855399,7.87218665 L32.1855399,7.87218665 C29.5058458,6.33012054 28.0282359,3.49784057 28.0809955,0.613049903 L28.0809955,0.613049903 L23.8077511,8.20918211 Z" id="Fill-1" fill="url(#linearGradient-1)"></path>
                <path d="M39.7082878,8.21873234 L32.0604848,21.8135269 L21.9404174,39.8077408 L21.9404174,39.8028879 L17.6671419,47.3990512 C19.377068,47.78358 21.1293014,47.9800907 22.8911471,47.981024 L22.8911471,47.981024 L22.9153493,47.981024 C24.6376565,47.9801841 26.3690784,47.7924148 28.0809955,47.4106546 L28.0809955,47.4106546 C28.0282359,44.5200467 29.4999974,41.6877978 32.1855399,40.1340661 L32.1855399,40.1340661 C34.8710823,38.585965 38.0667686,38.7266675 40.5412106,40.2217602 L40.5412106,40.2217602 C42.945348,37.600954 44.7044251,34.5046896 45.742289,31.191943 L45.742289,31.191943 C43.2150875,29.8021828 41.497011,27.1050992 41.5028905,24.0088347 L41.5028905,24.0088347 C41.5028905,20.9129436 43.2150564,18.2157356 45.7481685,16.8201892 L45.7481685,16.8201892 L45.7481685,16.8200648 C45.2380246,15.1782035 44.5343876,13.5715567 43.6372262,12.0178872 L43.6372262,12.0178872 C42.740127,10.469755 41.7022631,9.05666364 40.5353312,7.79006092 L40.5353312,7.79006092 C40.2687647,7.95148153 39.9902216,8.08944653 39.7082878,8.21873234" id="Fill-3" fill="url(#linearGradient-2)"></path>
                <path d="M13.6877771,26.1984498 L6.04000518,39.792871 C8.36923396,38.7248321 11.1671393,38.7592378 13.5626286,40.1398833 L13.5626286,40.1398833 C16.2422916,41.6819806 17.7199637,44.5139806 17.6671419,47.3990512 L17.6671419,47.3990512 L21.9404174,39.8028879 L21.9404174,26.1984498 L13.6877771,26.1984498 Z" id="Fill-5" fill="url(#linearGradient-3)"></path>
                <path d="M22.824731,0.0310771225 C21.1051614,0.0325081011 19.3763215,0.220277382 17.6671419,0.601415424 L17.6671419,0.601415424 C17.7199637,3.49205444 16.24814,6.32408555 13.5626286,7.87800389 L13.5626286,7.87800389 C10.8770862,9.42598056 7.68139987,9.28527803 5.20692677,7.79006092 L5.20692677,7.79006092 C2.80282048,10.4111471 1.04374336,13.5071627 0.00587945561,16.8201581 L0.00587945561,16.8201581 C2.53308101,18.2096695 4.25115749,20.9070019 4.24530914,24.0030175 L4.24530914,24.0030175 C4.24530914,27.0990331 2.53308101,29.7963655 0,31.191943 L0,31.191943 C0.510112767,32.8337421 1.21378095,34.4405133 2.11094232,35.9941828 L2.11094232,35.9941828 C3.00804148,37.542315 4.04590538,38.955313 5.21280622,40.2217602 L5.21280622,40.2217602 C5.47943487,40.0603707 5.75800907,39.9221879 6.04000518,39.792871 L6.04000518,39.792871 L13.6877771,26.1984498 L13.6876837,26.1984498 L23.8077511,8.19316137 L23.8077511,8.20918211 L28.0809955,0.613049903 C26.373558,0.229081011 24.6241866,0.0325703176 22.8649229,0.0310771225 L22.8649229,0.0310771225 L22.824731,0.0310771225 Z" id="Fill-7" fill="url(#linearGradient-4)"></path>
            </g>
        </g>
    </g>
</svg>