<?xml version="1.0" encoding="utf-8"?>
<!-- Generator: Adobe Illustrator 23.0.2, SVG Export Plug-In . SVG Version: 6.00 Build 0)  -->
<svg version="1.1" id="Capa_1" xmlns="http://www.w3.org/2000/svg" xmlns:xlink="http://www.w3.org/1999/xlink" x="0px" y="0px"
	 viewBox="0 0 48 48" style="enable-background:new 0 0 48 48;" xml:space="preserve">
<style type="text/css">
	.st0{fill:#EA9500;}
	.st1{clip-path:url(#SVGID_2_);}
	.st2{fill:#FFFFFF;}
</style>
<path class="st0" d="M48,19.94C48,8.93,37.25,0,24,0S0,8.93,0,19.94C0,29.3,7.77,37.16,18.25,39.3V48c3.61,0,6.67-3.45,7.65-8.18
	C38.26,39.02,48,30.42,48,19.94z"/>
<g>
	<defs>
		<path id="SVGID_1_" d="M24,0.94c-12.72,0-23.06,8.52-23.06,19c0,8.75,7.19,16.34,17.5,18.44l0.75,0.15v8.43
			c2.67-0.55,4.98-3.41,5.79-7.34l0.15-0.7l0.71-0.05c11.9-0.77,21.23-9.09,21.23-18.94C47.06,9.46,36.72,0.94,24,0.94z"/>
	</defs>
	<clipPath id="SVGID_2_">
		<use xlink:href="#SVGID_1_"  style="overflow:visible;"/>
	</clipPath>
	<g class="st1">
		<rect x="20.17" y="28.79" class="st2" width="7.67" height="5.14"/>
		<g>
			<path class="st2" d="M23.42,8.91V5.42c-0.67-0.24,1.83-0.24,1.16,0v3.48c1.35,0,3.43,2.19,3.43,4.56h-8.02
				C19.99,11.1,21.72,8.91,23.42,8.91z"/>
		</g>
		<path class="st2" d="M38.37,23.46c0,5.04-1.99,7.03-7.04,7.03H16.67c-5.04,0-7.03-1.99-7.03-7.03v-6.89
			c0-5.04,1.99-7.03,7.03-7.03h14.67c5.04,0,7.04,1.99,7.04,7.03V23.46z"/>
		<path class="st2" d="M36.9,15.84c1.84,0.25,3.19,0.3,3.19,3.93c0,3.56-1.22,3.58-2.93,3.89L36.9,15.84z"/>
		<path class="st2" d="M11.1,15.84c-1.84,0.25-3.19,0.3-3.19,3.93c0,3.56,1.22,3.58,2.93,3.89L11.1,15.84z"/>
		<g>
			<path class="st2" d="M31.33,32.95H16.66c-5.04,0-7.03,1.99-7.03,7.03V48h28.74v-8.02C38.37,34.94,36.37,32.95,31.33,32.95z"/>
		</g>
		<path class="st0" d="M17.31,25.64c-3.1,0-4.13-1.03-4.13-4.13v-2.98c0-3.1,1.03-4.13,4.13-4.13H30.7c3.08,0,4.09,0.99,4.13,4.06
			c0,0.02,0,3.05,0,3.05c0,3.1-1.03,4.13-4.13,4.13H17.31z"/>
		<g>
			<path class="st2" d="M27.54,20.02c0-0.83,0.68-1.5,1.51-1.5c0.83,0,1.51,0.67,1.51,1.5c0,0.83-0.67,1.5-1.51,1.5
				C28.21,21.52,27.54,20.85,27.54,20.02z"/>
			<path class="st2" d="M17.45,20.02c0-0.83,0.67-1.5,1.5-1.5c0.83,0,1.51,0.67,1.51,1.5c0,0.83-0.67,1.5-1.51,1.5
				C18.13,21.52,17.45,20.85,17.45,20.02z"/>
		</g>
		<path class="st2" d="M25.73,3.8c0-0.96-0.77-1.73-1.73-1.73c-0.96,0-1.73,0.77-1.73,1.73c0,0.96,0.77,1.73,1.73,1.73
			C24.96,5.53,25.73,4.75,25.73,3.8z"/>
		<path class="st2" d="M28.01,12.01c-0.26-1.89-0.3-3.27-4.03-3.27c-3.66,0-3.67,1.25-3.99,3.01L28.01,12.01z"/>
	</g>
</g>
</svg>
